<svg width="3" height="12" viewBox="0 0 3 12" fill="none" xmlns="http://www.w3.org/2000/svg">
<path d="M1.50033 0.75C0.904492 0.75 0.416992 1.275 0.416992 1.91667C0.416992 2.55833 0.904492 3.08333 1.50033 3.08333C2.09616 3.08333 2.58366 2.55833 2.58366 1.91667C2.58366 1.275 2.09616 0.75 1.50033 0.75ZM1.50033 8.91667C0.904492 8.91667 0.416992 9.44167 0.416992 10.0833C0.416992 10.725 0.904492 11.25 1.50033 11.25C2.09616 11.25 2.58366 10.725 2.58366 10.0833C2.58366 9.44167 2.09616 8.91667 1.50033 8.91667ZM1.50033 4.83333C0.904492 4.83333 0.416992 5.35833 0.416992 6C0.416992 6.64167 0.904492 7.16667 1.50033 7.16667C2.09616 7.16667 2.58366 6.64167 2.58366 6C2.58366 5.35833 2.09616 4.83333 1.50033 4.83333Z" fill="#2B2B2B"/>
</svg>
