<svg width="113" height="43" viewBox="0 0 113 43" fill="none" xmlns="http://www.w3.org/2000/svg">
<path d="M41.1422 27.9252C40.8997 27.9238 40.6625 28 40.462 28.1438C40.2541 28.2816 40.0897 28.4811 39.9892 28.7171L36.4212 37.8441L32.8227 28.7171C32.7125 28.4385 32.514 28.2088 32.261 28.0671C32.0081 27.9254 31.7163 27.8805 31.4354 27.9401C31.1545 27.9997 30.902 28.1601 30.7208 28.3939C30.5396 28.6278 30.441 28.9206 30.4418 29.2224C30.4409 29.4185 30.4791 29.6127 30.5541 29.7922L35.2546 41.4992C35.3468 41.7488 35.5117 41.9612 35.7255 42.1061C35.9394 42.2509 36.1912 42.3207 36.4451 42.3055C36.678 42.3096 36.9059 42.2342 37.0947 42.0905C37.2933 41.9352 37.4542 41.7326 37.5641 41.4992L42.2646 29.7922C42.3407 29.6194 42.379 29.4308 42.3769 29.2403C42.378 29.0702 42.346 28.9017 42.2828 28.7451C42.2196 28.5885 42.1266 28.4473 42.0095 28.3301C41.8984 28.2044 41.7643 28.1038 41.6152 28.0342C41.4661 27.9646 41.3052 27.9275 41.1422 27.9252ZM45.7271 27.8356C45.5589 27.8315 45.3917 27.8641 45.236 27.9313C45.0803 27.9986 44.9395 28.099 44.8224 28.2262C44.6982 28.3444 44.5998 28.4895 44.5341 28.6516C44.4683 28.8137 44.4367 28.9889 44.4414 29.1651V41.0226C44.4379 41.1969 44.4694 41.3701 44.5339 41.5306C44.5984 41.6912 44.6944 41.8356 44.8156 41.9543C44.9336 42.0776 45.0739 42.1747 45.2281 42.2399C45.3823 42.3051 45.5474 42.3372 45.7135 42.3341C45.8756 42.337 46.0365 42.3048 46.1863 42.2395C46.3361 42.1741 46.4715 42.0771 46.5843 41.9543C46.7018 41.8334 46.7945 41.6883 46.8565 41.528C46.9185 41.3677 46.9486 41.1957 46.9448 41.0226V29.1651C46.9504 28.9926 46.9232 28.8207 46.8648 28.6594C46.8064 28.4982 46.7179 28.3509 46.6047 28.2262C46.4937 28.0984 46.3578 27.9974 46.2064 27.93C46.0549 27.8626 45.8915 27.8304 45.7271 27.8356ZM11.6804 24.7539C11.0657 24.0487 10.314 23.4913 9.47636 23.1198C8.56765 22.7246 7.5921 22.5283 6.60908 22.5429C5.65915 22.5289 4.71703 22.7255 3.84385 23.1198C3.03417 23.4894 2.31096 24.041 1.72485 24.736C1.1584 25.4224 0.724045 26.2184 0.445971 27.0795C0.144592 27.9955 -0.00609526 28.9589 0.000405407 29.9283V41.0119C-0.00396888 41.1884 0.0270971 41.364 0.0915718 41.527C0.156046 41.69 0.252478 41.8368 0.374548 41.9579C0.622194 42.202 0.948652 42.3378 1.28779 42.3378C1.62693 42.3378 1.95338 42.202 2.20103 41.9579C2.32242 41.8363 2.41839 41.6894 2.48282 41.5265C2.54724 41.3636 2.5787 41.1883 2.57517 41.0119V30.1039C2.56743 29.4164 2.66271 28.7319 2.85748 28.0757C3.03033 27.5026 3.31537 26.974 3.69419 26.5241C4.0595 26.1078 4.50631 25.7801 5.00368 25.5637C6.09726 25.1064 7.31666 25.1141 8.40496 25.5852C8.92513 25.8177 9.38982 26.169 9.76547 26.6137C10.1472 27.0845 10.4394 27.6283 10.626 28.2155C10.8312 28.8621 10.9323 29.5404 10.9253 30.2222V40.994C10.9218 41.1704 10.9532 41.3456 11.0177 41.5085C11.0821 41.6714 11.178 41.8184 11.2994 41.94C11.5471 42.1841 11.8735 42.3199 12.2127 42.3199C12.5518 42.3199 12.8783 42.1841 13.1259 41.94C13.248 41.8189 13.3444 41.6721 13.4089 41.5091C13.4734 41.346 13.5044 41.1705 13.5001 40.994V30.1792C13.5092 29.1563 13.3516 28.1394 13.0341 27.1727C12.7352 26.2819 12.2755 25.4606 11.6804 24.7539ZM27.4929 29.9713C26.8576 29.3029 26.1057 28.77 25.2787 28.4018C24.4295 28.0244 23.5167 27.8319 22.5951 27.8356C21.6828 27.8309 20.7792 28.021 19.9387 28.3946C18.2618 29.1506 16.9298 30.5642 16.2245 32.3364C15.6917 33.6692 15.5498 35.1394 15.8172 36.5579C16.0845 37.9763 16.7488 39.278 17.7244 40.2952C18.3588 40.9658 19.1108 41.5001 19.9387 41.8683C20.7792 42.2419 21.6828 42.4321 22.5951 42.4273C23.5167 42.4311 24.4295 42.2385 25.2787 41.8611C26.1056 41.4943 26.8574 40.9625 27.4929 40.2952C28.4559 39.268 29.11 37.9643 29.3732 36.5473C29.6363 35.1304 29.497 33.6631 28.9725 32.3292C28.6286 31.4499 28.1262 30.6491 27.4929 29.9713ZM26.6664 36.9124C26.4475 37.4671 26.1274 37.9712 25.7242 38.396C25.3243 38.8302 24.8454 39.1751 24.3161 39.4101C23.2183 39.8879 21.9855 39.8879 20.8876 39.4101C20.3579 39.176 19.8789 38.831 19.4795 38.396C19.0752 37.9707 18.7529 37.4669 18.5305 36.9124C18.3038 36.3453 18.187 35.7361 18.187 35.1207C18.187 34.5053 18.3038 33.8961 18.5305 33.329C18.9802 32.21 19.8255 31.3194 20.8876 30.8457C21.9855 30.3679 23.2183 30.3679 24.3161 30.8457C24.8413 31.082 25.3192 31.4213 25.7242 31.8455C26.1261 32.2714 26.446 32.7751 26.6664 33.329C27.111 34.4776 27.111 35.7639 26.6664 36.9124ZM60.3084 29.8961C59.7011 29.2537 58.9831 28.7392 58.1928 28.3803C57.3858 28.016 56.5164 27.8306 55.6384 27.8356C54.7661 27.8309 53.9022 28.0164 53.1011 28.3803C52.3166 28.7387 51.6051 29.2534 51.0059 29.8961C49.7869 31.229 49.1117 33.0118 49.125 34.8627V40.933C49.1223 41.1082 49.1563 41.2818 49.2245 41.4416C49.2927 41.6014 49.3934 41.7434 49.5196 41.8576C49.6381 41.9777 49.7784 42.0713 49.9321 42.1329C50.0858 42.1945 50.2498 42.2227 50.4141 42.2159C50.5747 42.2216 50.7347 42.1927 50.8844 42.1311C51.0341 42.0695 51.1704 41.9764 51.2848 41.8576C51.3985 41.7347 51.4873 41.5887 51.5458 41.4285C51.6043 41.2684 51.6312 41.0974 51.6249 40.9259V34.8627C51.6218 34.2808 51.7222 33.7035 51.9209 33.1606C52.1096 32.6368 52.3991 32.1598 52.7712 31.7595C53.1311 31.3565 53.5666 31.0368 54.05 30.8206C54.5505 30.5985 55.0886 30.4863 55.6316 30.4909C56.1757 30.4928 56.7133 30.6149 57.2098 30.8493C57.7 31.0762 58.1445 31.3997 58.5193 31.8025C58.8902 32.2066 59.1815 32.684 59.3764 33.2072C59.5779 33.7487 59.685 34.3241 59.6928 34.9057V40.9474C59.6877 41.1212 59.7179 41.2942 59.7812 41.4549C59.8446 41.6155 59.9396 41.7601 60.0601 41.8791C60.3021 42.1176 60.6234 42.2463 60.9546 42.2374C61.1162 42.2424 61.2771 42.2133 61.4278 42.1517C61.5785 42.0902 61.716 41.9975 61.8322 41.8791C61.9464 41.7566 62.0355 41.6107 62.094 41.4504C62.1525 41.2901 62.1792 41.1189 62.1723 40.9474V34.8627C62.1763 33.9319 62.0076 33.0092 61.6757 32.1465C61.362 31.3105 60.8977 30.5463 60.3084 29.8961ZM97.2224 29.9534C96.5795 29.2891 95.8223 28.76 94.9912 28.3946C94.1469 28.0234 93.2411 27.8322 92.3263 27.8322C91.4114 27.8322 90.5057 28.0234 89.6614 28.3946C88.8303 28.7609 88.0748 29.294 87.437 29.9642C86.788 30.638 86.2733 31.4414 85.9228 32.3275C85.5724 33.2136 85.3934 34.1644 85.3962 35.1243C85.3933 36.0894 85.5761 37.0451 85.9336 37.9337C86.6435 39.6971 87.9803 41.0978 89.658 41.8361C90.3588 42.1499 91.1054 42.3353 91.8654 42.3843C91.9663 42.4134 92.0704 42.4278 92.1749 42.4273H96.3347C96.6496 42.4099 96.9462 42.2658 97.1632 42.0247C97.3803 41.7837 97.5013 41.4642 97.5013 41.1319C97.5013 40.7997 97.3803 40.4801 97.1632 40.2391C96.9462 39.9981 96.6496 39.854 96.3347 39.8365H92.1783C92.1138 39.8312 92.049 39.8312 91.9845 39.8365C91.614 39.8077 91.2489 39.7257 90.8995 39.5928C90.4441 39.4184 90.0207 39.1626 89.6478 38.8367C89.2852 38.5187 88.9709 38.1441 88.7158 37.7259C88.4596 37.2959 88.2777 36.8215 88.1784 36.3247H98.0421C98.2038 36.331 98.3651 36.3024 98.5159 36.2408C98.6668 36.1792 98.8042 36.0858 98.9197 35.9664C99.0316 35.8496 99.1195 35.7098 99.178 35.5557C99.2366 35.4016 99.2644 35.2365 99.2598 35.0705C99.2601 34.1108 99.075 33.161 98.7156 32.2791C98.3614 31.4108 97.8535 30.6215 97.219 29.9534H97.2224ZM88.1036 34.1174C88.1884 33.6014 88.3563 33.1045 88.6002 32.6482C89.0961 31.7244 89.8848 31.014 90.828 30.6414C91.8287 30.2641 92.9226 30.2641 93.9232 30.6414C94.4012 30.8237 94.8463 31.0903 95.2395 31.4298C95.6242 31.7697 95.9489 32.1785 96.1986 32.6374C96.4523 33.0954 96.6252 33.598 96.7088 34.1209L88.1036 34.1174ZM111.79 28.3373C111.596 28.1153 111.332 27.9743 111.048 27.9401C110.763 27.9058 110.476 27.9807 110.239 28.151C110.031 28.2888 109.867 28.4883 109.766 28.7243L106.198 37.8441L102.603 28.7171C102.51 28.4732 102.348 28.2646 102.141 28.1187C101.9 27.9556 101.614 27.885 101.33 27.919C101.046 27.953 100.782 28.0894 100.583 28.3051C100.469 28.4255 100.378 28.5685 100.316 28.7259C100.254 28.8833 100.222 29.052 100.222 29.2224C100.221 29.4189 100.26 29.6134 100.338 29.7922L105.042 41.4992C105.134 41.7488 105.299 41.9612 105.513 42.1061C105.727 42.2509 105.979 42.3207 106.232 42.3055C106.466 42.3091 106.695 42.2338 106.885 42.0905C107.082 41.934 107.242 41.7316 107.351 41.4992L112.052 29.7922C112.128 29.6194 112.166 29.4308 112.164 29.2403C112.164 29.0709 112.13 28.9034 112.066 28.7481C112.001 28.5928 111.908 28.453 111.79 28.3373ZM81.9847 22.6038C81.8182 22.5993 81.6526 22.6321 81.499 22.7001C81.3453 22.768 81.2072 22.8696 81.0936 22.998C80.8635 23.2649 80.7415 23.6159 80.7535 23.9763V30.4874C80.378 29.6914 79.8057 29.0167 79.097 28.5344C78.2622 28.0304 77.3104 27.7822 76.3488 27.8177C75.4377 27.8133 74.5352 28.0035 73.6958 28.3767C72.8668 28.7444 72.1145 29.2802 71.4816 29.9534C70.8409 30.6258 70.3303 31.423 69.9782 32.3006C69.3564 33.8546 69.2664 35.5879 69.7236 37.2041C70.1808 38.8202 71.1568 40.2188 72.4846 41.1607C73.8125 42.1025 75.4097 42.5289 77.003 42.3671C78.5963 42.2053 80.0868 41.4653 81.2194 40.2737C81.8496 39.6124 82.3541 38.8303 82.7058 37.9695C83.0663 37.0964 83.2549 36.1553 83.2602 35.2031V23.9584C83.2678 23.5948 83.1381 23.243 82.8997 22.9801C82.7807 22.8533 82.6378 22.7543 82.4801 22.6895C82.3225 22.6247 82.1537 22.5955 81.9847 22.6038ZM80.4065 36.9375C80.1901 37.4936 79.8697 37.9981 79.4644 38.4211C79.0656 38.8568 78.5864 39.202 78.0562 39.4352C76.9596 39.9128 75.7279 39.9128 74.6312 39.4352C74.101 39.202 73.6218 38.8568 73.223 38.4211C72.8167 37.9975 72.4942 37.4933 72.2741 36.9375C72.0473 36.3704 71.9305 35.7612 71.9305 35.1458C71.9305 34.5304 72.0473 33.9212 72.2741 33.3541C72.5563 32.6526 72.9976 32.0348 73.5592 31.5547C74.1208 31.0746 74.7856 30.747 75.4953 30.6006C76.205 30.4542 76.938 30.4934 77.6299 30.7148C78.3219 30.9362 78.9518 31.3331 79.4644 31.8706C79.8682 32.2948 80.1884 32.799 80.4065 33.3541C80.8555 34.5017 80.8555 35.7899 80.4065 36.9375ZM67.6483 38.4712C67.41 38.2166 67.1152 38.0285 66.7905 37.9242C66.4659 37.8198 66.1216 37.8025 65.789 37.8736C65.4563 37.9448 65.1458 38.1022 64.8855 38.3317C64.6251 38.5612 64.4232 38.8555 64.2981 39.1879C64.1893 39.4551 64.1338 39.7429 64.1348 40.0336C64.1334 40.3209 64.189 40.6053 64.2981 40.8685C64.3996 41.1247 64.5528 41.3546 64.7471 41.5422C64.9368 41.7443 65.1628 41.9047 65.4118 42.0142C65.6608 42.1236 65.9279 42.18 66.1977 42.18C66.4675 42.18 66.7346 42.1236 66.9837 42.0142C67.2327 41.9047 67.4586 41.7443 67.6483 41.5422C68.0262 41.1409 68.2388 40.5989 68.2402 40.0336C68.2392 39.7466 68.1837 39.4627 68.0769 39.1987C67.9808 38.9214 67.8353 38.666 67.6483 38.4461V38.4712Z" fill="#339999"/>
<path d="M45.6624 21.2421C45.176 21.2421 44.7006 21.3941 44.2962 21.6787C43.8918 21.9634 43.5766 22.3681 43.3904 22.8415C43.2043 23.3149 43.1556 23.8358 43.2505 24.3384C43.3454 24.8409 43.5796 25.3026 43.9235 25.6649C44.2674 26.0272 44.7056 26.274 45.1826 26.374C45.6596 26.4739 46.1541 26.4226 46.6034 26.2265C47.0528 26.0304 47.4368 25.6984 47.7071 25.2723C47.9773 24.8463 48.1215 24.3453 48.1215 23.8329C48.1219 23.4926 48.0586 23.1555 47.9352 22.8409C47.8118 22.5264 47.6307 22.2406 47.4022 21.9999C47.1738 21.7592 46.9025 21.5684 46.604 21.4384C46.3054 21.3083 45.9854 21.2416 45.6624 21.2421ZM49.0636 6.79376C48.1387 6.79265 47.2197 6.94998 46.3426 7.2596C45.4778 4.88864 43.8525 2.91139 41.7487 1.67079C39.645 0.430184 37.1954 0.00449568 34.8249 0.467553C32.4544 0.930611 30.3125 2.2532 28.7707 4.20594C27.2289 6.15867 26.3845 8.61835 26.384 11.1584C26.3836 11.5534 26.4041 11.9482 26.4452 12.3409C26.101 12.2964 25.7546 12.2736 25.4078 12.2728C23.9765 12.2729 22.5687 12.6558 21.3163 13.3858C20.0639 14.1159 19.008 15.169 18.2475 16.4465C17.4871 17.724 17.047 19.184 16.9686 20.6897C16.8901 22.1954 17.1759 23.6974 17.7991 25.0549C19.2818 23.9485 21.0613 23.3701 22.8779 23.4043C24.6945 23.4385 26.4533 24.0833 27.8975 25.2448C28.0638 24.0668 28.626 22.9909 29.4818 22.2128C30.3377 21.4348 31.4303 21.0064 32.5607 21.0056C32.7277 21.006 32.8946 21.0156 33.0606 21.0343C33.0606 20.8838 33.0606 20.7297 33.0606 20.5792C33.0604 18.7012 33.6767 16.881 34.805 15.4271C35.9333 13.9733 37.5041 12.9752 39.2511 12.6023C40.9981 12.2294 42.8137 12.5045 44.3902 13.381C45.9666 14.2575 47.2068 15.6815 47.9004 17.4114C49.4364 16.9306 51.0808 17.004 52.5726 17.6201C54.0645 18.2362 55.3182 19.3596 56.1349 20.8121C57.0025 19.4598 57.5043 17.8841 57.5864 16.2541C57.6686 14.6241 57.328 13.0013 56.6012 11.5598C55.8744 10.1183 54.7889 8.91238 53.461 8.07148C52.1331 7.23058 50.613 6.7864 49.0636 6.78659V6.79376Z" fill="#00C8BE"/>
</svg>
